<svg width="300" height="246" viewBox="0 0 300 246" fill="none" xmlns="http://www.w3.org/2000/svg">
<path d="M16.128 34.928V42.288H30.528V51.824H16.128V59.952H32.448V70H3.584V24.88H32.448V34.928H16.128ZM55.8625 58.16L62.5825 34.096H75.9585L63.6065 70H47.9905L35.6385 34.096H49.0145L55.8625 58.16ZM114.513 51.632C114.513 52.6133 114.449 53.5947 114.321 54.576H90.577C90.705 56.5387 91.2383 58.0107 92.177 58.992C93.1583 59.9307 94.3957 60.4 95.889 60.4C97.9797 60.4 99.473 59.4613 100.369 57.584H113.745C113.19 60.0587 112.102 62.2773 110.481 64.24C108.902 66.16 106.897 67.6747 104.465 68.784C102.033 69.8933 99.345 70.448 96.401 70.448C92.8597 70.448 89.7023 69.7013 86.929 68.208C84.1983 66.7147 82.0437 64.5813 80.465 61.808C78.929 59.0347 78.161 55.7707 78.161 52.016C78.161 48.2613 78.929 45.0187 80.465 42.288C82.001 39.5147 84.1343 37.3813 86.865 35.888C89.6383 34.3947 92.817 33.648 96.401 33.648C99.9423 33.648 103.078 34.3733 105.809 35.824C108.54 37.2747 110.673 39.3653 112.209 42.096C113.745 44.784 114.513 47.9627 114.513 51.632ZM101.713 48.496C101.713 46.96 101.201 45.7653 100.177 44.912C99.153 44.016 97.873 43.568 96.337 43.568C94.801 43.568 93.5423 43.9947 92.561 44.848C91.5797 45.6587 90.9397 46.8747 90.641 48.496H101.713ZM143.135 33.776C147.273 33.776 150.559 35.1627 152.991 37.936C155.423 40.6667 156.639 44.3787 156.639 49.072V70H144.095V50.736C144.095 48.688 143.561 47.088 142.495 45.936C141.428 44.7413 139.999 44.144 138.207 44.144C136.329 44.144 134.857 44.7413 133.791 45.936C132.724 47.088 132.191 48.688 132.191 50.736V70H119.647V34.096H132.191V39.216C133.3 37.5947 134.793 36.2933 136.671 35.312C138.548 34.288 140.703 33.776 143.135 33.776ZM184.706 59.312V70H179.266C170.092 70 165.506 65.456 165.506 56.368V44.528H161.09V34.096H165.506V25.392H178.114V34.096H184.642V44.528H178.114V56.56C178.114 57.5413 178.327 58.2453 178.753 58.672C179.223 59.0987 179.991 59.312 181.058 59.312H184.706ZM227.195 34.096V70H214.587V64.88C213.52 66.5013 212.048 67.824 210.171 68.848C208.294 69.8293 206.139 70.32 203.707 70.32C199.526 70.32 196.219 68.9547 193.787 66.224C191.398 63.4507 190.203 59.696 190.203 54.96V34.096H202.683V53.36C202.683 55.408 203.216 57.0293 204.283 58.224C205.392 59.376 206.843 59.952 208.635 59.952C210.47 59.952 211.92 59.376 212.987 58.224C214.054 57.0293 214.587 55.408 214.587 53.36V34.096H227.195ZM246.878 40.432C248.286 38.384 249.993 36.7627 251.998 35.568C254.003 34.3733 256.158 33.776 258.462 33.776V47.152H254.942C252.211 47.152 250.185 47.6853 248.862 48.752C247.539 49.8187 246.878 51.6747 246.878 54.32V70H234.334V34.096H246.878V40.432ZM297.263 51.632C297.263 52.6133 297.199 53.5947 297.071 54.576H273.327C273.455 56.5387 273.988 58.0107 274.927 58.992C275.908 59.9307 277.146 60.4 278.639 60.4C280.73 60.4 282.223 59.4613 283.119 57.584H296.495C295.94 60.0587 294.852 62.2773 293.231 64.24C291.652 66.16 289.647 67.6747 287.215 68.784C284.783 69.8933 282.095 70.448 279.151 70.448C275.61 70.448 272.452 69.7013 269.679 68.208C266.948 66.7147 264.794 64.5813 263.215 61.808C261.679 59.0347 260.911 55.7707 260.911 52.016C260.911 48.2613 261.679 45.0187 263.215 42.288C264.751 39.5147 266.884 37.3813 269.615 35.888C272.388 34.3947 275.567 33.648 279.151 33.648C282.692 33.648 285.828 34.3733 288.559 35.824C291.29 37.2747 293.423 39.3653 294.959 42.096C296.495 44.784 297.263 47.9627 297.263 51.632ZM284.463 48.496C284.463 46.96 283.951 45.7653 282.927 44.912C281.903 44.016 280.623 43.568 279.087 43.568C277.551 43.568 276.292 43.9947 275.311 44.848C274.33 45.6587 273.69 46.8747 273.391 48.496H284.463Z" fill="#087FFF"/>
<path fill-rule="evenodd" clip-rule="evenodd" d="M121.969 102.55C125.409 102.55 128.198 105.339 128.198 108.779V115.008H171.802V108.779C171.802 105.339 174.591 102.55 178.031 102.55C181.471 102.55 184.26 105.339 184.26 108.779V115.162C199.999 116.725 212.291 130.004 212.291 146.154V202.216C212.291 219.417 198.347 233.361 181.146 233.361H118.855C101.653 233.361 87.709 219.417 87.709 202.216V146.154C87.709 130.004 100.001 116.725 115.74 115.162V108.779C115.74 105.339 118.529 102.55 121.969 102.55ZM101.231 139.925H198.769C196.204 132.667 189.282 127.467 181.146 127.467H118.855C110.718 127.467 103.796 132.667 101.231 139.925ZM199.833 152.383H100.167V202.216C100.167 212.536 108.534 220.903 118.855 220.903H181.146C191.466 220.903 199.833 212.536 199.833 202.216V152.383ZM112.625 171.07C112.625 167.63 115.414 164.841 118.855 164.841H181.146C184.586 164.841 187.375 167.63 187.375 171.07C187.375 174.51 184.586 177.299 181.146 177.299H118.855C115.414 177.299 112.625 174.51 112.625 171.07Z" fill="#087FFF"/>
</svg>
