<svg width="150" height="104" viewBox="0 0 150 104" fill="none" xmlns="http://www.w3.org/2000/svg">
<path d="M8.36088 17.464V21.144H15.5609V25.912H8.36088V29.976H16.5209V35H2.08888V12.44H16.5209V17.464H8.36088ZM28.2281 29.08L31.5881 17.048H38.2761L32.1001 35H24.2921L18.1161 17.048H24.8041L28.2281 29.08ZM57.5534 25.816C57.5534 26.3067 57.5214 26.7973 57.4574 27.288H45.5854C45.6494 28.2693 45.916 29.0053 46.3854 29.496C46.876 29.9653 47.4947 30.2 48.2414 30.2C49.2867 30.2 50.0334 29.7307 50.4814 28.792H57.1694C56.892 30.0293 56.348 31.1387 55.5374 32.12C54.748 33.08 53.7454 33.8373 52.5294 34.392C51.3134 34.9467 49.9694 35.224 48.4974 35.224C46.7267 35.224 45.148 34.8507 43.7614 34.104C42.396 33.3573 41.3187 32.2907 40.5294 30.904C39.7614 29.5173 39.3774 27.8853 39.3774 26.008C39.3774 24.1307 39.7614 22.5093 40.5294 21.144C41.2974 19.7573 42.364 18.6907 43.7294 17.944C45.116 17.1973 46.7054 16.824 48.4974 16.824C50.268 16.824 51.836 17.1867 53.2014 17.912C54.5667 18.6373 55.6334 19.6827 56.4014 21.048C57.1694 22.392 57.5534 23.9813 57.5534 25.816ZM51.1534 24.248C51.1534 23.48 50.8974 22.8827 50.3854 22.456C49.8734 22.008 49.2334 21.784 48.4654 21.784C47.6974 21.784 47.068 21.9973 46.5774 22.424C46.0867 22.8293 45.7667 23.4373 45.6174 24.248H51.1534ZM71.8641 16.888C73.9335 16.888 75.5761 17.5813 76.7921 18.968C78.0081 20.3333 78.6161 22.1893 78.6161 24.536V35H72.3441V25.368C72.3441 24.344 72.0775 23.544 71.5441 22.968C71.0108 22.3707 70.2961 22.072 69.4001 22.072C68.4615 22.072 67.7255 22.3707 67.1921 22.968C66.6588 23.544 66.3921 24.344 66.3921 25.368V35H60.1201V17.048H66.3921V19.608C66.9468 18.7973 67.6935 18.1467 68.6321 17.656C69.5708 17.144 70.6481 16.888 71.8641 16.888ZM92.6496 29.656V35H89.9296C85.343 35 83.0496 32.728 83.0496 28.184V22.264H80.8416V17.048H83.0496V12.696H89.3536V17.048H92.6176V22.264H89.3536V28.28C89.3536 28.7707 89.4603 29.1227 89.6736 29.336C89.9083 29.5493 90.2923 29.656 90.8256 29.656H92.6496ZM113.894 17.048V35H107.59V32.44C107.057 33.2507 106.321 33.912 105.382 34.424C104.444 34.9147 103.366 35.16 102.15 35.16C100.06 35.16 98.4064 34.4773 97.1904 33.112C95.9957 31.7253 95.3984 29.848 95.3984 27.48V17.048H101.638V26.68C101.638 27.704 101.905 28.5147 102.438 29.112C102.993 29.688 103.718 29.976 104.614 29.976C105.532 29.976 106.257 29.688 106.79 29.112C107.324 28.5147 107.59 27.704 107.59 26.68V17.048H113.894ZM123.736 20.216C124.44 19.192 125.293 18.3813 126.296 17.784C127.299 17.1867 128.376 16.888 129.528 16.888V23.576H127.768C126.403 23.576 125.389 23.8427 124.728 24.376C124.067 24.9093 123.736 25.8373 123.736 27.16V35H117.464V17.048H123.736V20.216ZM148.928 25.816C148.928 26.3067 148.896 26.7973 148.832 27.288H136.96C137.024 28.2693 137.291 29.0053 137.76 29.496C138.251 29.9653 138.87 30.2 139.616 30.2C140.662 30.2 141.408 29.7307 141.856 28.792H148.544C148.267 30.0293 147.723 31.1387 146.912 32.12C146.123 33.08 145.12 33.8373 143.904 34.392C142.688 34.9467 141.344 35.224 139.872 35.224C138.102 35.224 136.523 34.8507 135.136 34.104C133.771 33.3573 132.694 32.2907 131.904 30.904C131.136 29.5173 130.752 27.8853 130.752 26.008C130.752 24.1307 131.136 22.5093 131.904 21.144C132.672 19.7573 133.739 18.6907 135.104 17.944C136.491 17.1973 138.08 16.824 139.872 16.824C141.643 16.824 143.211 17.1867 144.576 17.912C145.942 18.6373 147.008 19.6827 147.776 21.048C148.544 22.392 148.928 23.9813 148.928 25.816ZM142.528 24.248C142.528 23.48 142.272 22.8827 141.76 22.456C141.248 22.008 140.608 21.784 139.84 21.784C139.072 21.784 138.443 21.9973 137.952 22.424C137.462 22.8293 137.142 23.4373 136.992 24.248H142.528Z" fill="white"/>
<path fill-rule="evenodd" clip-rule="evenodd" d="M63.125 49C64.6438 49 65.875 50.1726 65.875 51.619V54.2381H85.125V51.619C85.125 50.1726 86.3562 49 87.875 49C89.3938 49 90.625 50.1726 90.625 51.619V54.3028C97.5733 54.9598 103 60.543 103 67.3333V90.9048C103 98.1371 96.8439 104 89.25 104H61.75C54.1561 104 48 98.1371 48 90.9048V67.3333C48 60.543 53.4267 54.9598 60.375 54.3028V51.619C60.375 50.1726 61.6062 49 63.125 49ZM53.9694 64.7143H97.0306C95.898 61.6626 92.8421 59.4762 89.25 59.4762H61.75C58.1579 59.4762 55.102 61.6626 53.9694 64.7143ZM97.5 69.9524H53.5V90.9048C53.5 95.2441 57.1937 98.7619 61.75 98.7619H89.25C93.8063 98.7619 97.5 95.2441 97.5 90.9048V69.9524ZM59 77.8095C59 76.3631 60.2312 75.1905 61.75 75.1905H89.25C90.7688 75.1905 92 76.3631 92 77.8095C92 79.256 90.7688 80.4286 89.25 80.4286H61.75C60.2312 80.4286 59 79.256 59 77.8095Z" fill="white"/>
</svg>
